{"title":"In.the.Realm.of.the.Senses.1976.DVDRip.XviD-KARiNA","uid":5017839,"size":1472106013,"categoryP":"video","categoryS":"movies","magnet":"?xt=urn:btih:f827e5a2fe6fcb03f9e42dec601e9652c0bb30f1&amp;dn=In.the.Realm.of.the.Senses.1976.DVDRip.XviD-KARiNA&amp;tr=udp%3A%2F%2Ftracker.openbittorrent.com%3A80&amp;tr=udp%3A%2F%2Fopen.demonii.com%3A1337&amp;tr=udp%3A%2F%2Ftracker.coppersurfer.tk%3A6969&amp;tr=udp%3A%2F%2Fexodus.desync.com%3A6969","seeders":5,"leechers":3,"uploader":"imohitmontblanc","files":-1,"time":1248306048,"description":"88      a8P          db         88888888ba   88  888b      88         db         \n88    ,88'          d88b        88      &quot;8b  &quot;&quot;  8888b     88        d88b        \n88  ,88&quot;           d8'`8b       88      ,8P      88 `8b    88       d8'`8b       \n88,d88'           d8'  `8b      88aaaaaa8P'  88  88  `8b   88      d8'  `8b      \n8888&quot;88,         d8YaaaaY8b     88&quot;&quot;&quot;&quot;88'    88  88   `8b  88     d8YaaaaY8b     \n88P   Y8b       d8&quot;&quot;&quot;&quot;&quot;&quot;&quot;&quot;8b    88    `8b    88  88    `8b 88    d8&quot;&quot;&quot;&quot;&quot;&quot;&quot;&quot;8b    \n88     &quot;88,    d8'        `8b   88     `8b   88  88     `8888   d8'        `8b   \n88       Y8b  d8'          `8b  88      `8b  88  88      `888  d8'          `8b  \n-------------------------------------------------------------------------------\n                    -------------------------------------\n           [ In.the.Realm.of.the.Senses.1976.DVDRip.XviD-KARiNA ]            \n                    -------------------------------------\n\n[Synopsis]==================================                                                                \n\n In the Realm of the Senses | Japan / France | 1976 | Directed by Nagisa Oshima\n                                  \nBased upon a true incident in 1930s Japan, Nagisa Oshima's controversial film effectively skirts the borderline between pornography and art -- making Bernardo Bertolucci's Last Tango in Paris of four years earlier look like children's programming in comparison. The story concerns servant and former prostitute Sada Abe (Eiko Matsuda) who becomes sexually obsessed with her employer Kizicho (Tatsuya Fuji), a businessman, after seeing him making love to his wife. After making love to Sada, Kizicho becomes obsessed with her as well. As their love-making becomes more and more intense, they find themselves unable to separate themselves from each other, until every waking hour is spent in more and more dangerous sexual acts with Sada becoming more and more of the aggressor. Finally, for the ultimate in eroticism, Kizicho agrees to be strangled during sexual ecstasy for the ultimate in orgasmic fulfillment.\n\n[ IMdB: http://www.imdb.com/title/tt0074102/ | Rating: 6.6 / 10 (4,595 votes) ]\n                                     \n[General]===================================                                                                 \n\nComplete name                    : In.the.Realm.of.the.Senses.1976.DVDRip.XviD-KARiNA\nFormat                           : AVI\nFile size                        : 1.37 GiB\nDuration                         : 1h 42mn\nOverall bit rate                 : 1 911 Kbps\nWriting application              : VirtualDubMod 1.5.4.1 (build 2178/release)\nWriting library                  : VirtualDubMod build 2178/release\nSource                           : Criterion NTSC DVD9\n\n[Video]=====================================\n                                 \nFormat                           : MPEG-4 Visual\nCodec ID                         : XVID\nBit rate                         : 1 792 Kbps\nWidth                            : 720 pixels\nHeight                           : 432 pixels\nDisplay aspect ratio             : 1.667\nFrame rate                       : 23.976 fps\nResolution                       : 24 bits\nColorimetry                      : 4:2:0\nScan type                        : Progressive\nBits/(Pixel*Frame)               : 0.240\nStream size                      : 1.28 GiB (94%)\nWriting library                  : XviD 1.2.1 (UTC 2008-12-04)\n\n[Audio]=====================================                              \n\nFormat                           : MPEG Audio\nFormat version                   : Version 1\nFormat profile                   : Layer 3\nBit rate                         : 106 Kbps\nNominal bit rate                 : 160 Kbps\nChannel(s)                       : 2 channels\nSampling rate                    : 48.0 KHz\nResolution                       : 16 bits\nStream size                      : 77.7 MiB (6%)\nLanguage                         : Japanese\n\n[Subtitles]=================================\n\nFormat                           : SRT\nLanguage                         : English\n\n[KARiNA]===================================","torrent":{"xt":"urn:btih:f827e5a2fe6fcb03f9e42dec601e9652c0bb30f1","amp;dn":"In.the.Realm.of.the.Senses.1976.DVDRip.XviD-KARiNA","amp;tr":["udp%3A%2F%2Ftracker.openbittorrent.com%3A80","udp%3A%2F%2Fopen.demonii.com%3A1337","udp%3A%2F%2Ftracker.coppersurfer.tk%3A6969","udp%3A%2F%2Fexodus.desync.com%3A6969"],"infoHash":"f827e5a2fe6fcb03f9e42dec601e9652c0bb30f1","infoHashBuffer":{"type":"Buffer","data":[248,39,229,162,254,111,203,3,249,228,45,236,96,30,150,82,192,187,48,241]},"announce":[],"urlList":[]}}